<!-- Generated by IcoMoon.io -->
<svg version="1.1" xmlns="http://www.w3.org/2000/svg" width="23" height="23" viewBox="0 0 768 768">
<title></title>
<g id="icomoon-ignore">
</g>
<path fill="currentColor" d="M559.5 384q19.5 0 33.75-13.5t14.25-34.5-14.25-34.5-33.75-13.5-33.75 13.5-14.25 34.5 14.25 34.5 33.75 13.5zM463.5 256.5q19.5 0 33.75-14.25t14.25-33.75-14.25-33.75-33.75-14.25-33.75 14.25-14.25 33.75 14.25 33.75 33.75 14.25zM304.5 256.5q19.5 0 33.75-14.25t14.25-33.75-14.25-33.75-33.75-14.25-33.75 14.25-14.25 33.75 14.25 33.75 33.75 14.25zM208.5 384q19.5 0 33.75-13.5t14.25-34.5-14.25-34.5-33.75-13.5-33.75 13.5-14.25 34.5 14.25 34.5 33.75 13.5zM384 96q118.5 0 203.25 75t84.75 181.5q0 66-47.25 112.5t-113.25 46.5h-55.5q-21 0-34.5 14.25t-13.5 33.75q0 16.5 12 31.5t12 33q0 21-13.5 34.5t-34.5 13.5q-120 0-204-84t-84-204 84-204 204-84z"></path>
</svg>
