
<svg class="svg-fill-current-color" width="22px" height="22px" viewBox="0 0 22 22" version="1.1" xmlns="http://www.w3.org/2000/svg" xmlns:xlink="http://www.w3.org/1999/xlink">
    <g id="desktop" stroke="none" stroke-width="1" fill="none" fill-rule="evenodd">
        <g id="product-page" transform="translate(-899.000000, -588.000000)" fill="#4460A0">
            <g id="Group-28" transform="translate(166.000000, 161.000000)">
                <g id="Group-16">
                    <g id="Group-57">
                        <g id="Group-13" transform="translate(733.000000, 37.000000)">
                            <g id="Group-30" transform="translate(0.000000, 390.000000)">
                                <path d="M21.0835625,0 L0.917125,0 C0.4104375,0 0,0.4104375 0,0.9164375 L0,21.0835625 C0,21.5895625 0.4104375,22 0.917125,22 L11.6875,22 L11.6875,13.75 L8.9375,13.75 L8.9375,10.3125 L11.6875,10.3125 L11.6875,7.5625 C11.6875,4.7210625 13.4866875,3.3226875 16.0215,3.3226875 C17.235625,3.3226875 18.27925,3.4134375 18.583125,3.4533125 L18.583125,6.4233125 L16.8251875,6.424 C15.44675,6.424 15.125,7.0791875 15.125,8.0403125 L15.125,10.3125 L18.5625,10.3125 L17.875,13.75 L15.125,13.75 L15.18,22 L21.0835625,22 C21.5895625,22 22,21.5895625 22,21.0835625 L22,0.9164375 C22,0.4104375 21.5895625,0 21.0835625,0" id="Fill-3"></path>
                            </g>
                        </g>
                    </g>
                </g>
            </g>
        </g>
    </g>
</svg>