<svg class="svg-fill-current-color" width="32" height="32" viewBox="0 0 32 32" xmlns="http://www.w3.org/2000/svg">
  <path fill-rule="evenodd" clip-rule="evenodd" d="M32 16C32 24.8366 24.8366 32 16 32C7.16344 32 0 24.8366 0 16C0 7.16344 7.16344 0 16 0C24.8366 0 32 7.16344 32 16ZM17.1114 5.47996C16.9933 5.55459 16.9096 5.67289 16.8784 5.80904L15.409 12.1731C12.9184 12.2391 10.5062 13.0576 8.48981 14.5209C8.02083 14.0437 7.38177 13.772 6.71274 13.7652C6.04372 13.7585 5.39932 14.0173 4.92083 14.485C4.81333 14.5919 4.71502 14.7077 4.62695 14.8311C4.25974 15.4146 4.13811 16.1197 4.28859 16.7925C4.43906 17.4653 4.84942 18.0514 5.43022 18.4229C5.50713 18.4719 5.58671 18.5166 5.66859 18.5568C5.54421 19.6567 5.72165 20.7697 6.18185 21.7764C6.64206 22.7831 7.36767 23.6455 8.28083 24.2711C10.5397 25.8506 13.2445 26.6664 16 26.5992C18.7555 26.666 21.4601 25.8502 23.7192 24.2711C24.6324 23.6455 25.358 22.7831 25.8182 21.7764C26.2784 20.7697 26.4558 19.6567 26.3314 18.5568C26.9496 18.2482 27.4203 17.7074 27.6406 17.0526C27.8609 16.3978 27.8129 15.6824 27.507 15.0629C27.4668 14.981 27.4221 14.9015 27.3731 14.8246C27.1599 14.5222 26.8827 14.2706 26.5612 14.0876C26.2397 13.9045 25.8818 13.7946 25.513 13.7656C25.1441 13.7366 24.7735 13.7893 24.4273 13.9198C24.0812 14.0504 23.768 14.2556 23.5102 14.5209C21.4425 13.0201 18.9597 12.1986 16.4049 12.1699L17.7339 6.45557L21.6523 7.32415C21.6945 7.73315 21.8826 8.11328 22.1822 8.39494C22.4817 8.67661 22.8727 8.84097 23.2835 8.85796C23.6944 8.87495 24.0976 8.74343 24.4194 8.48746C24.7412 8.23149 24.96 7.8682 25.0359 7.46407C25.1117 7.05995 25.0395 6.64202 24.8325 6.28678C24.6254 5.93153 24.2973 5.66274 23.9083 5.52958C23.5193 5.39643 23.0953 5.40782 22.714 5.56168C22.3327 5.71553 22.0195 6.00156 21.8319 6.36741L17.5086 5.41068C17.3722 5.38042 17.2294 5.40533 17.1114 5.47996ZM18.6035 18.9828C18.4133 18.6982 18.3119 18.3636 18.3119 18.0213C18.3114 17.7939 18.3559 17.5687 18.4427 17.3585C18.5295 17.1483 18.657 16.9574 18.8178 16.7966C18.9786 16.6358 19.1695 16.5084 19.3797 16.4215C19.5898 16.3347 19.8151 16.2902 20.0425 16.2907C20.3847 16.2907 20.7193 16.3922 21.0039 16.5823C21.2885 16.7725 21.5104 17.0428 21.6413 17.359C21.7723 17.6752 21.8066 18.0232 21.7398 18.3589C21.673 18.6946 21.5082 19.003 21.2662 19.245C21.0242 19.487 20.7158 19.6519 20.3801 19.7186C20.0444 19.7854 19.6964 19.7512 19.3802 19.6202C19.064 19.4892 18.7937 19.2674 18.6035 18.9828ZM20.486 22.552C20.4766 22.6426 20.4365 22.7273 20.3723 22.7919C19.1038 23.721 17.5723 24.2219 16 24.2219C14.4277 24.2219 12.8962 23.721 11.6278 22.7919C11.5635 22.7273 11.5234 22.6426 11.514 22.552C11.5047 22.4614 11.5266 22.3703 11.5763 22.2939C11.6259 22.2176 11.7003 22.1605 11.7869 22.1323C11.8735 22.1041 11.9671 22.1064 12.0523 22.1388C13.2015 22.9682 14.5828 23.4145 16 23.4145C17.4173 23.4145 18.7985 22.9682 19.9478 22.1388C20.0329 22.1064 20.1266 22.1041 20.2132 22.1323C20.2998 22.1605 20.3741 22.2176 20.4237 22.2939C20.4734 22.3703 20.4954 22.4614 20.486 22.552ZM10.5186 18.9828C10.3285 18.6982 10.227 18.3636 10.227 18.0213C10.2265 17.7939 10.271 17.5687 10.3578 17.3585C10.4446 17.1483 10.5721 16.9574 10.7329 16.7966C10.8937 16.6358 11.0846 16.5084 11.2948 16.4215C11.5049 16.3347 11.7302 16.2902 11.9576 16.2907C12.2998 16.2907 12.6344 16.3922 12.919 16.5823C13.2036 16.7725 13.4255 17.0428 13.5564 17.359C13.6874 17.6752 13.7217 18.0232 13.6549 18.3589C13.5881 18.6946 13.4233 19.003 13.1813 19.245C12.9393 19.487 12.6309 19.6519 12.2952 19.7186C11.9595 19.7854 11.6115 19.7512 11.2953 19.6202C10.9791 19.4892 10.7088 19.2674 10.5186 18.9828Z" fill="currentColor"/>
</svg>