<svg class="svg-fill-current-color" width="15" height="18" viewBox="0 0 11 14" fill="none" xmlns="http://www.w3.org/2000/svg">
  <path d="M11 6.86005V7.14005C10.9996 7.2711 10.9653 7.39982 10.9005 7.51371C10.8357 7.6276 10.7425 7.7228 10.63 7.79005L1.68 13C1.14 13.32 0.86 13.32 0.62 13.18L0.37 13.04C0.260366 12.9746 0.168997 12.8825 0.10433 12.7724C0.039662 12.6623 0.00378091 12.5377 0 12.41V1.59005C0.000397587 1.459 0.0346763 1.33027 0.0995073 1.21638C0.164338 1.10249 0.257519 1.0073 0.37 0.940047L0.62 0.800047C0.86 0.660047 1.14 0.660047 1.84 1.07005L10.63 6.21005C10.7425 6.2773 10.8357 6.37249 10.9005 6.48638C10.9653 6.60027 10.9996 6.729 11 6.86005Z" fill="white"/>
</svg>
