<svg class="svg-fill-current-color" width="31" height="24" viewBox="0 0 31 24" xmlns="http://www.w3.org/2000/svg">
  <g fill="none" fill-rule="evenodd">
    <path d="M29.585 23.175v.06h.055a.058.058 0 0 0 .03-.008.026.026 0 0 0 .01-.023.025.025 0 0 0-.01-.022.053.053 0 0 0-.03-.007h-.055zm.055-.042c.029 0 .05.007.066.02.016.012.023.03.023.051a.06.06 0 0 1-.018.046.09.09 0 0 1-.053.022l.073.084h-.057l-.067-.083h-.022v.083h-.048v-.223h.103zm-.014.3a.19.19 0 0 0 .171-.115.19.19 0 0 0-.04-.205.185.185 0 0 0-.131-.054.189.189 0 0 0-.134.054.181.181 0 0 0-.04.06.18.18 0 0 0-.014.072c0 .027.005.05.015.073a.176.176 0 0 0 .1.1c.022.01.047.015.073.015zm0-.428a.24.24 0 0 1 .173.071.235.235 0 0 1 .052.263.249.249 0 0 1-.13.128.244.244 0 0 1-.341-.221.235.235 0 0 1 .15-.221.244.244 0 0 1 .096-.02zm-22.543-.858c0-.424.278-.773.733-.773.435 0 .728.334.728.773 0 .44-.293.774-.728.774-.455 0-.733-.349-.733-.774zm1.956 0V20.94h-.525v.294c-.167-.218-.42-.355-.763-.355-.678 0-1.209.532-1.209 1.27s.531 1.268 1.209 1.268c.343 0 .596-.136.763-.354v.293h.525v-1.208zm17.754 0c0-.424.278-.773.733-.773.435 0 .728.334.728.773 0 .44-.293.774-.728.774-.455 0-.733-.349-.733-.774zm1.957 0V19.97h-.526v1.264c-.167-.218-.42-.355-.763-.355-.678 0-1.209.532-1.209 1.27s.531 1.268 1.209 1.268c.343 0 .596-.136.763-.354v.293h.526v-1.208zm-13.19-.798c.34 0 .557.212.612.586h-1.254c.057-.349.268-.586.643-.586zm.011-.47c-.708 0-1.203.515-1.203 1.268 0 .769.515 1.27 1.238 1.27.364 0 .698-.092.991-.34l-.258-.389c-.202.162-.46.253-.703.253-.338 0-.646-.157-.722-.592h1.794c.005-.065.01-.131.01-.202-.005-.753-.47-1.269-1.147-1.269zm6.344 1.268c0-.424.278-.773.733-.773.434 0 .728.334.728.773 0 .44-.294.774-.728.774-.455 0-.733-.349-.733-.774zm1.956 0V20.94h-.525v.294c-.168-.218-.42-.355-.763-.355-.678 0-1.21.532-1.21 1.27s.532 1.268 1.21 1.268c.343 0 .595-.136.763-.354v.293h.525v-1.208zm-4.923 0c0 .733.51 1.27 1.289 1.27.364 0 .606-.082.869-.289l-.252-.425a1.062 1.062 0 0 1-.633.218c-.42-.005-.728-.308-.728-.774 0-.465.309-.768.728-.773.228 0 .435.076.633.217l.252-.424c-.263-.208-.505-.289-.87-.289-.778 0-1.288.536-1.288 1.27zm6.773-1.269c-.303 0-.5.142-.637.355v-.294h-.52v2.416h.526v-1.354c0-.4.171-.622.515-.622.107 0 .218.015.329.06l.162-.495a1.119 1.119 0 0 0-.375-.066zm-14.083.253c-.253-.166-.601-.253-.986-.253-.612 0-1.006.294-1.006.774 0 .394.294.637.834.713l.248.035c.288.04.424.116.424.253 0 .187-.192.293-.55.293-.364 0-.627-.116-.804-.252l-.248.409c.288.212.652.313 1.046.313.698 0 1.103-.328 1.103-.788 0-.425-.319-.647-.845-.723l-.247-.036c-.228-.03-.41-.075-.41-.237 0-.177.172-.283.46-.283.308 0 .607.116.753.207l.228-.425zm6.779-.253c-.304 0-.5.142-.637.355v-.294h-.52v2.416h.525v-1.354c0-.4.172-.622.515-.622.107 0 .218.015.329.06l.162-.495a1.119 1.119 0 0 0-.374-.066zm-4.484.061h-.86v-.733h-.53v.733h-.49v.48h.49v1.103c0 .56.217.894.839.894.228 0 .49-.07.657-.187l-.152-.45a.973.973 0 0 1-.465.137c-.262 0-.348-.162-.348-.405V21.42h.86v-.48zm-7.855 2.416V21.84c0-.571-.364-.955-.951-.96-.309-.006-.627.09-.85.43-.166-.269-.429-.43-.798-.43-.258 0-.51.075-.708.358v-.298h-.526v2.416h.531v-1.339c0-.42.233-.642.592-.642.349 0 .525.227.525.637v1.344h.531v-1.339c0-.42.243-.642.592-.642.359 0 .53.227.53.637v1.344h.532z" fill="#231F20" fill-rule="nonzero"/>
    <path d="M30.356 15.941v-.732h-.144l-.166.503-.166-.503h-.145v.732h.103v-.552l.155.477h.106l.156-.478v.553h.101zm-.913 0v-.607h.184v-.123h-.47v.123h.184v.607h.102z" fill="#F79410" fill-rule="nonzero"/>
    <path fill="#FF5F00" d="M19.448 16.838h-7.963V2.528h7.963z"/>
    <path d="M11.995 9.682a9.085 9.085 0 0 1 3.476-7.155A9.1 9.1 0 0 0 .747 9.682a9.1 9.1 0 0 0 14.724 7.155 9.085 9.085 0 0 1-3.476-7.155" fill="#EB001B"/>
    <path d="M30.186 9.682a9.1 9.1 0 0 1-14.724 7.155 9.084 9.084 0 0 0 3.477-7.155 9.084 9.084 0 0 0-3.477-7.155 9.1 9.1 0 0 1 14.724 7.155" fill="#F79E1B"/>
  </g>
</svg>
