<svg class="svg-fill-current-color" width="16" height="16" viewBox="0 0 16 16" fill="none" xmlns="http://www.w3.org/2000/svg">
  <path d="M12.5 0.5H3.5C2.70435 0.5 1.94129 0.816071 1.37868 1.37868C0.816071 1.94129 0.5 2.70435 0.5 3.5V15.125C0.5 15.2245 0.539509 15.3198 0.609835 15.3902C0.680161 15.4605 0.775544 15.5 0.875 15.5C0.924048 15.4997 0.972542 15.4896 1.01763 15.4703C1.06271 15.451 1.10347 15.4228 1.1375 15.3875L3.3875 13.1375C3.60075 12.9299 3.85308 12.7666 4.12987 12.6572C4.40667 12.5478 4.70242 12.4943 5 12.5H12.5C13.2957 12.5 14.0587 12.1839 14.6213 11.6213C15.1839 11.0587 15.5 10.2957 15.5 9.5V3.5C15.5 2.70435 15.1839 1.94129 14.6213 1.37868C14.0587 0.816071 13.2957 0.5 12.5 0.5ZM5.75 6.875C5.75 6.97446 5.71049 7.06984 5.64017 7.14017C5.56984 7.21049 5.47446 7.25 5.375 7.25H4.625C4.52554 7.25 4.43016 7.21049 4.35984 7.14017C4.28951 7.06984 4.25 6.97446 4.25 6.875V6.125C4.25 6.02554 4.28951 5.93016 4.35984 5.85984C4.43016 5.78951 4.52554 5.75 4.625 5.75H5.375C5.47446 5.75 5.56984 5.78951 5.64017 5.85984C5.71049 5.93016 5.75 6.02554 5.75 6.125V6.875ZM8.75 6.875C8.75 6.97446 8.71049 7.06984 8.64017 7.14017C8.56984 7.21049 8.47446 7.25 8.375 7.25H7.625C7.52555 7.25 7.43016 7.21049 7.35984 7.14017C7.28951 7.06984 7.25 6.97446 7.25 6.875V6.125C7.25 6.02554 7.28951 5.93016 7.35984 5.85984C7.43016 5.78951 7.52555 5.75 7.625 5.75H8.375C8.47446 5.75 8.56984 5.78951 8.64017 5.85984C8.71049 5.93016 8.75 6.02554 8.75 6.125V6.875ZM11.75 6.875C11.75 6.97446 11.7105 7.06984 11.6402 7.14017C11.5698 7.21049 11.4745 7.25 11.375 7.25H10.625C10.5255 7.25 10.4302 7.21049 10.3598 7.14017C10.2895 7.06984 10.25 6.97446 10.25 6.875V6.125C10.25 6.02554 10.2895 5.93016 10.3598 5.85984C10.4302 5.78951 10.5255 5.75 10.625 5.75H11.375C11.4745 5.75 11.5698 5.78951 11.6402 5.85984C11.7105 5.93016 11.75 6.02554 11.75 6.125V6.875Z"/>
</svg>
