<svg class="svg-fill-current-color" width="32" height="32" viewBox="0 0 32 32" xmlns="http://www.w3.org/2000/svg">
  <path fill-rule="evenodd" clip-rule="evenodd" d="M7.33985 4.95133C9.71643 2.86158 12.892 1.96421 15.998 2.00109C19.108 1.96421 22.2918 2.86158 24.6602 4.95133C24.9118 5.16771 24.941 5.39491 24.9677 5.60351C24.9845 5.73463 25.0004 5.8584 25.07 5.96752C25.1137 6.03615 25.241 6.15063 25.4253 6.31636C26.0002 6.83348 27.1298 7.84955 28.0079 9.5283C29.1675 11.7451 29.3068 13.1628 29.3068 13.1628C29.3068 13.1628 32.3063 14.6257 31.9744 18.756C31.6425 22.8863 27.2294 24.3492 27.2294 24.3492C27.2294 24.3492 26.0124 26.0701 23.054 27.6272C20.0955 29.1843 15.998 29.2294 15.998 29.2294C15.998 29.2294 11.8963 29.2089 8.94609 27.6272C5.99585 26.0455 4.76658 24.3492 4.76658 24.3492C4.76658 24.3492 0.357612 22.8863 0.0257103 18.756C-0.306192 14.6257 2.68502 13.1628 2.68502 13.1628C2.68502 13.1628 2.81615 11.7451 3.97985 9.5283C4.86456 7.84299 6.00742 6.82081 6.58198 6.30691C6.76317 6.14486 6.88785 6.03334 6.93009 5.96752C6.99763 5.86229 7.01339 5.74019 7.03023 5.60977C7.05731 5.39997 7.08717 5.16864 7.33985 4.95133ZM14.8959 3.30422C12.6504 3.57876 8.99131 4.82032 8.48731 6.361C8.36848 6.72158 8.3316 7.40588 8.89706 6.98792C11.3272 5.17331 14.3568 4.35145 17.3708 4.6892C17.9568 4.74656 18.1862 4.21798 17.8748 3.89837C17.1618 3.1731 15.8219 3.18949 14.8959 3.30422ZM7.18428 7.49192C6.25676 8.35254 5.48344 9.36561 4.89785 10.4872C3.90214 12.3762 3.84068 13.839 4.02507 13.4498C4.4518 12.2896 4.98541 11.1717 5.61902 10.1103C6.09439 9.33103 6.67642 8.62211 7.34819 8.00412C7.80711 7.58617 7.47521 7.23788 7.18428 7.49192ZM4.43892 18.7192C4.44299 17.5796 4.51414 16.4413 4.65199 15.3101C4.65814 15.2465 4.65801 15.1862 4.6516 15.1295C4.60673 14.7331 4.25402 14.5203 3.59073 14.6995C3.37533 14.7582 3.17467 14.8615 3.00173 15.0027C2.8288 15.1438 2.68744 15.3198 2.58683 15.519C2.20822 15.8157 1.90377 16.1962 1.69754 16.6308C1.49131 17.0653 1.38894 17.5418 1.39854 18.0226C1.34936 19.7805 2.07053 20.3664 2.07053 20.3664C1.87641 19.7171 1.82745 19.0331 1.92712 18.3627C2.01201 17.5963 2.20315 17.1629 2.34501 16.9369L2.34097 16.9696C2.34097 16.9696 1.9683 18.8603 2.59713 20.3681C2.64979 20.5175 2.71275 20.6575 2.78761 20.7844C3.31937 21.6856 4.00597 21.8279 4.38781 21.8275C4.56485 21.8275 4.67658 21.7965 4.67658 21.7965C4.67658 21.7965 4.4758 20.1329 4.43892 18.7192ZM6.11892 22.7553C6.00419 22.2513 5.8116 21.0016 5.70916 20.3214C5.58624 19.5305 5.71736 19.0265 6.07385 20.2189C6.18858 20.641 6.35658 21.2064 6.4836 21.6162C6.49981 21.6672 6.51582 21.7191 6.53207 21.7717C6.74176 22.451 6.98998 23.2552 8.18409 23.8371C9.84658 24.5075 11.5683 25.0205 13.3265 25.3696C13.6173 25.2715 13.8931 25.1336 14.146 24.9598C14.3315 24.8537 14.5363 24.7854 14.7484 24.759H17.2561C17.4682 24.7854 17.6729 24.8537 17.8584 24.9598C18.1117 25.133 18.3874 25.2709 18.6779 25.3696C19.6698 25.1873 20.6486 24.9396 21.6077 24.6279C21.4192 25.0704 20.7021 25.5458 19.2639 25.7916C17.7456 25.976 16.2157 26.0472 14.6869 26.0047C14.0846 25.9924 13.6584 26.2178 13.7404 26.7586C13.7596 26.8812 13.8165 26.9948 13.9031 27.0836C13.9897 27.1724 14.1018 27.2321 14.2239 27.2544C12.5977 27.0753 11.0093 26.6439 9.51579 25.976C8.33624 25.4495 7.28286 24.6769 6.42624 23.7101C6.33199 23.6035 6.24594 23.4601 6.11892 22.7553ZM10.2984 20.9893C10.4019 20.6874 10.5935 20.4234 10.8483 20.2313C11.1032 20.0393 11.4097 19.9279 11.7285 19.9116C12.8348 19.8788 13.6502 22.1079 13.6502 22.1079L10.2984 20.9893ZM6.1558 16.4697C8.05297 7.92626 20.0506 6.27495 24.7136 13.626C26.5728 16.5594 25.6823 20.0565 25.626 20.2776C25.6242 20.2847 25.6232 20.2887 25.6233 20.2886C27.8155 16.8917 25.3447 12.1263 22.2756 10.1512C20.5942 9.072 19.299 8.67475 18.435 8.40977C17.7704 8.20594 17.361 8.08038 17.2274 7.78285C16.9201 7.09856 17.3913 6.63553 18.346 6.59046C19.1393 6.60126 19.9286 6.70439 20.698 6.89778C17.1823 5.28334 12.5849 5.63163 9.54038 7.94675C6.80321 10.0242 5.72965 12.1345 5.52887 12.7122C5.42542 13.0099 5.4884 13.2271 5.56705 13.4983C5.64104 13.7534 5.7289 14.0564 5.70507 14.5192C5.68083 14.9898 5.6327 15.2504 5.57687 15.5526C5.51943 15.8635 5.45385 16.2185 5.39775 16.8917C5.28712 18.2193 5.44692 18.7561 5.62312 18.8503C5.64963 18.8636 5.76364 18.3193 5.90631 17.6381C5.98412 17.2666 6.07048 16.8543 6.1558 16.4697ZM30.3273 19.6944C30.5298 19.1609 30.6272 18.5932 30.6141 18.0226C30.6232 17.5414 30.5202 17.0647 30.3133 16.6302C30.1063 16.1956 29.8011 15.8152 29.4217 15.519C29.4217 15.519 29.0652 15.4494 29.0529 15.9288C29.1385 16.7043 29.1782 17.4842 29.1718 18.2644C29.1654 18.9068 29.1106 19.5479 29.0079 20.1821L28.9953 20.1897L28.9956 20.178L23.4475 23.5584C23.4475 23.5584 23.2467 23.9682 23.7425 23.8535C24.2383 23.7387 28.508 22.0587 28.6596 21.9768C28.8112 21.8948 30.0773 20.7598 30.3273 19.6944ZM26.9427 10.4872C26.8894 10.3725 26.8321 10.2537 26.7706 10.143C26.3636 10.0494 26.7248 11.0111 26.7416 11.056L26.7419 11.0568C27.089 11.8385 27.3967 12.6372 27.6639 13.4498C27.8278 13.839 27.8401 12.3762 26.9427 10.4872ZM21.6978 20.9893C21.5956 20.6874 21.4049 20.4233 21.1506 20.2311C20.8964 20.0389 20.5902 19.9276 20.2719 19.9116C19.1614 19.8788 18.3501 22.1079 18.3501 22.1079L21.6978 20.9893ZM7.65446 15.0131C8.03555 14.2277 8.56781 13.5252 9.22077 12.9458C8.26388 14.6401 7.73106 16.5408 7.6678 18.4857C7.64684 20.7429 8.32139 21.9787 8.61287 22.5127C8.72035 22.7096 8.77575 22.8111 8.72497 22.8332C8.53648 22.9151 8.25375 22.6939 8.01609 22.5054C7.77843 22.3169 6.74175 20.6164 6.99989 17.5227C7.05094 16.6513 7.27338 15.7984 7.65446 15.0131Z" fill="currentColor"/>
</svg>