
<svg class="svg-fill-current-color" width="23px" height="18px" viewBox="0 0 23 18" version="1.1" xmlns="http://www.w3.org/2000/svg" xmlns:xlink="http://www.w3.org/1999/xlink">
    <g id="desktop" stroke="none" stroke-width="1" fill="none" fill-rule="evenodd">
        <g id="product-page" transform="translate(-983.000000, -591.000000)" fill="#5AA8DF">
            <g id="Group-28" transform="translate(166.000000, 161.000000)">
                <g id="Group-16">
                    <g id="Group-57">
                        <g id="Group-13" transform="translate(733.000000, 37.000000)">
                            <g id="Group-30" transform="translate(0.000000, 390.000000)">
                                <path d="M106.149587,5.13051336 C105.334897,5.49182849 104.458604,5.73616612 103.539396,5.84622188 C104.477985,5.28348395 105.198539,4.39334743 105.537704,3.3322438 C104.660027,3.85275908 103.686829,4.23068641 102.652028,4.43487791 C101.822803,3.55166314 100.641953,3 99.3351279,3 C96.8253028,3 94.7910017,5.0343011 94.7910017,7.54412613 C94.7910017,7.89990386 94.8311479,8.24668333 94.9086714,8.5796193 C91.1314747,8.38996347 87.7834263,6.58061911 85.542165,3.83130167 C85.1510863,4.50271102 84.9268218,5.28348395 84.9268218,6.11616997 C84.9268218,7.69225149 85.7290521,9.0835224 86.9479715,9.89821188 C86.2031917,9.87467795 85.502711,9.67048644 84.8901365,9.32993655 C84.8894443,9.34931744 84.8894443,9.36800615 84.8894443,9.38738704 C84.8894443,11.5891944 86.4558354,13.4255336 88.5351279,13.8429148 C88.1537397,13.946741 87.7522784,14.002115 87.3376658,14.002115 C87.044876,14.002115 86.7603922,13.9737358 86.4828302,13.9211306 C87.060796,15.7263219 88.7393194,17.0400692 90.7279369,17.0767545 C89.1726206,18.2956739 87.2130744,19.021765 85.0839454,19.021765 C84.7170929,19.021765 84.3557777,19.0003076 84,18.9587772 C86.0107672,20.2476062 88.3994616,21 90.966045,21 C99.3247452,21 103.895174,14.0754855 103.895174,8.07087099 C103.895174,7.87360123 103.891021,7.67771582 103.882023,7.48252259 C104.770083,6.8422611 105.540473,6.04210729 106.149587,5.13051336" id="Fill-1"></path>
                            </g>
                        </g>
                    </g>
                </g>
            </g>
        </g>
    </g>
</svg>