<svg class="svg-fill-current-color" width="40" height="15" viewBox="0 0 40 15" xmlns="http://www.w3.org/2000/svg">
  <g fill="#0072CE" fill-rule="evenodd">
    <path d="M39.661 10.013h-2.019c-.201 0-.335.008-.448.083-.117.075-.162.186-.162.333 0 .174.099.293.243.344.116.04.242.053.426.053l.6.016c.607.015 1.011.118 1.258.372.044.035.071.074.102.114v-1.315zm0 3.047c-.269.392-.793.591-1.503.591h-2.14v-.991h2.131c.212 0 .36-.028.449-.114a.406.406 0 0 0 .13-.302.379.379 0 0 0-.135-.305c-.08-.071-.197-.103-.39-.103-1.04-.035-2.338.032-2.338-1.43 0-.67.427-1.376 1.59-1.376h2.206v-.92h-2.05c-.619 0-1.068.148-1.386.378V8.11h-3.033c-.484 0-1.054.12-1.323.378V8.11h-5.415v.378c-.43-.31-1.158-.378-1.493-.378h-3.572v.378c-.341-.33-1.1-.378-1.561-.378H15.83l-.915.987-.856-.987H8.088v6.449h5.858l.943-1.003.888 1.003 3.611.003v-1.517h.355c.48.007 1.045-.012 1.543-.227v1.74h2.979v-1.68h.144c.183 0 .201.007.201.19v1.49h9.05c.574 0 1.174-.146 1.507-.412v.412h2.87c.597 0 1.18-.083 1.624-.297V13.06zm-4.418-1.846c.215.222.331.503.331.979 0 .994-.623 1.458-1.74 1.458h-2.158v-.991h2.15c.21 0 .358-.028.452-.114a.41.41 0 0 0 .13-.302.396.396 0 0 0-.135-.305c-.084-.071-.201-.103-.394-.103-1.036-.035-2.333.032-2.333-1.43 0-.67.422-1.376 1.583-1.376h2.221v.983h-2.032c-.201 0-.332.008-.444.084-.121.075-.166.186-.166.332 0 .175.103.293.242.344.117.041.243.053.431.053l.597.016c.601.015 1.014.118 1.265.372zm-9.996-.286c-.148.088-.331.095-.547.095h-1.346V9.985h1.364c.198 0 .395.005.53.084.143.075.228.218.228.416a.498.498 0 0 1-.229.443zm.67.575c.246.091.447.254.542.388.156.226.179.437.183.844v.916H25.53v-.578c0-.278.027-.69-.179-.905-.162-.165-.408-.205-.813-.205h-1.183v1.688H22.24V9.03H24.8c.56 0 .97.024 1.333.218.35.21.57.499.57 1.026 0 .738-.494 1.114-.786 1.23zm1.398-2.473h3.698v.955h-2.594v.84h2.53v.943h-2.53v.92l2.594.004v.959h-3.698V9.03zm-7.473 2.132H18.41V9.985h1.445c.4 0 .677.163.677.567 0 .4-.265.61-.69.61zm-2.535 2.069l-1.7-1.883 1.7-1.823v3.706zm-4.392-.543H10.19v-.92h2.432v-.943h-2.432v-.84h2.777l1.212 1.347-1.265 1.356zm8.806-2.136c0 1.284-.96 1.549-1.929 1.549H18.41v1.55h-2.153l-1.364-1.53-1.417 1.53H9.088V9.03h4.455l1.363 1.514 1.409-1.514h3.54c.879 0 1.866.242 1.866 1.522zM3.803 3.704l-.758-1.842-.754 1.842h1.512zm16.702-.734c-.152.092-.332.095-.548.095h-1.345V2.04h1.364c.193 0 .394.009.525.083.144.068.233.211.233.409 0 .202-.085.364-.229.44zm9.6.734l-.766-1.842-.763 1.842h1.53zM12.21 5.697h-1.135L11.07 2.08 9.464 5.697h-.972l-1.61-3.622v3.622H4.627l-.425-1.03H1.896l-.43 1.03H.263l1.984-4.62h1.646l1.884 4.375V1.077h1.808l1.45 3.134 1.331-3.134h1.844v4.62zm4.526 0h-3.7v-4.62h3.7v.962h-2.592v.833h2.53v.947h-2.53v.923h2.592v.955zm5.218-3.376a1.3 1.3 0 0 1-.78 1.232c.242.092.449.254.547.389.157.23.184.435.184.848v.907h-1.118l-.004-.582c0-.278.027-.678-.175-.9-.161-.163-.408-.198-.807-.198h-1.19v1.68h-1.107v-4.62h2.548c.566 0 .983.015 1.341.221.35.207.561.508.561 1.023zm1.773 3.376h-1.13v-4.62h1.13v4.62zm13.112 0h-1.57L33.17 2.23v3.468h-2.256l-.431-1.03h-2.301l-.418 1.03h-1.297c-.538 0-1.22-.118-1.606-.51-.39-.393-.592-.924-.592-1.765 0-.685.121-1.311.597-1.806.359-.369.92-.54 1.683-.54h1.072v.991h-1.05c-.404 0-.632.06-.852.274-.189.194-.319.562-.319 1.046 0 .495.1.852.305 1.085.17.183.48.239.772.239h.498l1.56-3.634h1.66l1.876 4.37v-4.37h1.687l1.947 3.218V1.077h1.134v4.62zM.25 6.605h1.893l.427-1.026h.955l.426 1.026h3.724V5.82l.332.788H9.94l.333-.8v.797h9.254l-.004-1.685h.18c.125.005.161.016.161.223v1.462h4.787v-.392c.386.206.986.392 1.777.392h2.013l.431-1.026h.956l.421 1.026h3.88V5.63l.588.975h3.11V.16h-3.078v.76l-.43-.76H31.16v.76l-.396-.76h-4.266c-.714 0-1.341.1-1.848.376V.161h-2.944v.376c-.322-.285-.762-.376-1.25-.376H9.701l-.721 1.664L8.24.161H4.853v.76L4.48.162H1.592L.25 3.225v3.38z"/>
  </g>
</svg>
