<svg class="svg-fill-current-color" width="37" height="12" viewBox="0 0 37 12" xmlns="http://www.w3.org/2000/svg">
  <g fill="none" fill-rule="evenodd">
    <path d="M12.894 11.728L14.739.284h2.949l-1.845 11.444h-2.949zM26.54.565l-.4 2.48-.264-.13a5.173 5.173 0 0 0-2.207-.44c-1.155 0-1.69.51-1.69.985-.007.537.625.888 1.656 1.42 1.702.815 2.488 1.804 2.477 3.109-.024 2.374-2.037 3.909-5.135 3.909-1.323-.015-2.598-.291-3.286-.61l.413-2.562.379.182c.97.427 1.597.6 2.778.6.847 0 1.757-.35 1.765-1.117.004-.501-.382-.86-1.531-1.42-1.118-.547-2.601-1.465-2.583-3.11.017-2.224 2.07-3.777 4.985-3.777 1.143 0 2.06.25 2.643.48zm3.926 7.106h2.449c-.117-.573-.683-3.304-.683-3.304l-.199-.987c-.149.429-.41 1.122-.392 1.092 0 0-.93 2.54-1.175 3.199zM34.104.295l2.387 11.437h-2.737s-.27-1.315-.36-1.715l-3.776-.005c-.115.31-.62 1.72-.62 1.72H25.9l4.38-10.488c.31-.746.839-.949 1.545-.949h2.28zM10.42.293h3.125L8.901 11.716l-3.12.002L3.14 1.71c1.872.993 3.547 2.973 4.085 4.8l.309 1.587L10.42.293z" fill="#26337A"/>
    <path d="M4.854.285H.1l-.04.238C3.76 1.47 6.21 3.759 7.226 6.51L6.19 1.25C6.013.526 5.495.311 4.854.285" fill="#EC982D"/>
  </g>
</svg>
