<svg class="svg-fill-current-color" width="22" height="22" viewBox="0 0 22 22" xmlns="http://www.w3.org/2000/svg">
  <path d="M5.495 0h11.01A5.494 5.494 0 0 1 22 5.495v11.01A5.494 5.494 0 0 1 16.505 22H5.495A5.494 5.494 0 0 1 0 16.505V5.495A5.494 5.494 0 0 1 5.495 0zM2.2 16.505A3.294 3.294 0 0 0 5.495 19.8h11.01a3.294 3.294 0 0 0 3.295-3.295V5.495A3.294 3.294 0 0 0 16.505 2.2H5.495A3.294 3.294 0 0 0 2.2 5.495v11.01zM5.5 11a5.5 5.5 0 1 1 11 0 5.5 5.5 0 0 1-11 0zm8.8 0a3.3 3.3 0 1 0-6.6 0 3.3 3.3 0 0 0 6.6 0zm2.2-4.4a1.1 1.1 0 1 0 0-2.2 1.1 1.1 0 0 0 0 2.2z" fill-rule="nonzero"/>
</svg>
