<svg class="svg-fill-current-color" width="24" height="24" viewBox="0 0 18 18" xmlns="http://www.w3.org/2000/svg">
  <path d="M15 4.5C15 4.5 13.2802 3.15375 11.25 3L11.067 3.36638C12.9022 3.816 13.7445 4.45875 14.625 5.25C13.1074 4.47525 11.61 3.75 9 3.75C6.39 3.75 4.89262 4.47525 3.375 5.25C4.2555 4.45875 5.2575 3.744 6.933 3.36638L6.75 3C4.62 3.20063 3 4.5 3 4.5C3 4.5 1.07963 7.28475 0.75 12.75C2.685 14.9824 5.625 15 5.625 15L6.24 14.181C5.196 13.818 4.0185 13.1704 3 12C4.21425 12.9187 6.04688 13.875 9 13.875C11.9531 13.875 13.7858 12.9187 15 12C13.9819 13.1704 12.8044 13.818 11.76 14.181L12.375 15C12.375 15 15.315 14.9824 17.25 12.75C16.9204 7.28475 15 4.5 15 4.5ZM6.5625 11.25C5.83725 11.25 5.25 10.5788 5.25 9.75C5.25 8.92125 5.83725 8.25 6.5625 8.25C7.28775 8.25 7.875 8.92125 7.875 9.75C7.875 10.5788 7.28775 11.25 6.5625 11.25ZM11.4375 11.25C10.7122 11.25 10.125 10.5788 10.125 9.75C10.125 8.92125 10.7122 8.25 11.4375 8.25C12.1628 8.25 12.75 8.92125 12.75 9.75C12.75 10.5788 12.1628 11.25 11.4375 11.25Z">
</svg>