<svg class="svg-fill-current-color" width="32" height="32" viewBox="0 0 32 32" fill="none" xmlns="http://www.w3.org/2000/svg">
  <path d="M31.8411 12.1202C31.3971 9.77617 30.1354 8.31651 28.8424 7.41324C27.5049 6.48004 25.903 6 24.2723 6H1.1249C0.31995 6 0.0115297 6.78601 0.00847599 7.17994C0.00847599 7.23124 0.00969745 7.43706 0.00969745 7.43706C0.00969745 7.43706 -0.028168 17.6778 0.0438985 23.147C0.262541 26.3759 3.4976 26.3747 3.4976 26.3747C3.4976 26.3747 14.0602 26.3435 19.1263 26.3124C19.3638 26.3112 19.6014 26.2855 19.8317 26.2275C22.7162 25.5056 23.0142 22.8263 22.9837 21.3325C28.7814 21.6543 32.8714 17.5636 31.8411 12.1196V12.1202ZM17.1035 16.7984C15.4435 18.735 11.7596 22.0971 11.7596 22.0971C11.7596 22.0971 11.599 22.2547 11.3467 22.1276C11.2454 22.0525 11.2026 22.0079 11.2026 22.0079C10.612 21.4204 6.71433 17.9466 5.82816 16.7398C4.88335 15.4535 4.44118 13.1431 5.70784 11.7965C6.97389 10.4504 9.71181 10.3496 11.5202 12.3388C11.5202 12.3388 13.6059 9.96488 16.141 11.0557C18.6762 12.1464 18.5797 15.0657 17.1035 16.7984ZM25.3289 17.4348C24.0928 17.5893 23.0881 17.4732 23.0881 17.4732V9.90259H24.6094C25.6147 9.90259 26.5852 10.3216 27.2411 11.0831C27.7028 11.6194 28.0723 12.3742 28.0723 13.4174C28.0723 15.9666 26.7586 16.9712 25.3289 17.4348Z" fill="currentColor"/>
</svg>
