
<svg class="svg-fill-current-color" width="22px" height="22px" viewBox="0 0 22 22" version="1.1" xmlns="http://www.w3.org/2000/svg" xmlns:xlink="http://www.w3.org/1999/xlink">
    <g id="desktop" stroke="none" stroke-width="1" fill="none" fill-rule="evenodd">
        <g id="product-page" transform="translate(-941.000000, -588.000000)" fill="#CF1813">
            <g id="Group-28" transform="translate(166.000000, 161.000000)">
                <g id="Group-16">
                    <g id="Group-57">
                        <g id="Group-13" transform="translate(733.000000, 37.000000)">
                            <g id="Group-30" transform="translate(0.000000, 390.000000)">
                                <path d="M53,0 C46.9245625,0 42,4.9245625 42,11 C42,15.659875 44.8991875,19.6405 48.9911875,21.2430625 C48.8949375,20.3726875 48.8083125,19.0375625 49.0296875,18.0874375 C49.2290625,17.2294375 50.3194375,12.61975 50.3194375,12.61975 C50.3194375,12.61975 49.990125,11.961125 49.990125,10.9869375 C49.990125,9.45725 50.877,8.3153125 51.9804375,8.3153125 C52.918875,8.3153125 53.372625,9.02 53.372625,9.8649375 C53.372625,10.808875 52.77175,12.219625 52.4616875,13.52725 C52.2025,14.6224375 53.0103125,15.5155 54.090375,15.5155 C56.045625,15.5155 57.5485,13.4536875 57.5485,10.4781875 C57.5485,7.844375 55.6558125,6.0025625 52.95325,6.0025625 C49.82375,6.0025625 47.98675,8.350375 47.98675,10.7765625 C47.98675,11.721875 48.3504375,12.7359375 48.804875,13.286625 C48.8949375,13.3959375 48.908,13.4908125 48.8811875,13.6021875 C48.798,13.9500625 48.612375,14.6966875 48.5759375,14.85 C48.5278125,15.05075 48.4164375,15.0940625 48.208125,14.997125 C46.8338125,14.3570625 45.975125,12.348875 45.975125,10.7353125 C45.975125,7.2655 48.4961875,4.0789375 53.243375,4.0789375 C57.059,4.0789375 60.024875,6.798 60.024875,10.432125 C60.024875,14.223 57.6344375,17.274125 54.3165625,17.274125 C53.202125,17.274125 52.154375,16.6945625 51.7955,16.0105 C51.7955,16.0105 51.244125,18.1108125 51.1100625,18.62575 C50.861875,19.5806875 50.1915625,20.7783125 49.742625,21.509125 C50.7725,21.828125 51.8663125,22 53,22 C59.0754375,22 64,17.07475 64,11 C64,4.9245625 59.0754375,0 53,0" id="Fill-11-Copy"></path>
                            </g>
                        </g>
                    </g>
                </g>
            </g>
        </g>
    </g>
</svg>