<svg class="svg-fill-current-color" width="16" height="16" viewBox="0 0 16 16" fill="none" xmlns="http://www.w3.org/2000/svg">
  <path d="M4.24999 4.25C4.24999 3.50832 4.46992 2.7833 4.88198 2.16661C5.29403 1.54993 5.8797 1.06928 6.56493 0.785453C7.25015 0.501625 8.00415 0.427362 8.73158 0.572057C9.45901 0.716751 10.1272 1.0739 10.6516 1.59835C11.1761 2.1228 11.5332 2.79098 11.6779 3.51841C11.8226 4.24584 11.7484 4.99984 11.4645 5.68506C11.1807 6.37029 10.7001 6.95596 10.0834 7.36801C9.46669 7.78007 8.74167 8 7.99999 8C7.00543 8 6.0516 7.60491 5.34834 6.90165C4.64508 6.19839 4.24999 5.24456 4.24999 4.25ZM15.4175 14.4125L14 11.57C13.6883 10.9479 13.2096 10.4248 12.6175 10.0592C12.0254 9.69365 11.3433 9.50002 10.6475 9.5H5.35249C4.65665 9.50002 3.97454 9.69365 3.38247 10.0592C2.7904 10.4248 2.31172 10.9479 1.99999 11.57L0.582489 14.4125C0.524956 14.5267 0.497565 14.6537 0.502916 14.7814C0.508266 14.9091 0.546182 15.0334 0.613061 15.1423C0.67994 15.2513 0.773563 15.3414 0.885038 15.404C0.996514 15.4666 1.12214 15.4996 1.24999 15.5H14.75C14.8778 15.4996 15.0035 15.4666 15.1149 15.404C15.2264 15.3414 15.32 15.2513 15.3869 15.1423C15.4538 15.0334 15.4917 14.9091 15.4971 14.7814C15.5024 14.6537 15.475 14.5267 15.4175 14.4125Z"/>
</svg>