<svg class="svg-fill-current-color" width="32" height="32" viewBox="0 0 32 32" xmlns="http://www.w3.org/2000/svg">
  <path d="M16.0009 0.241211C7.29754 0.241211 0.242676 7.29608 0.242676 15.9994C0.242676 24.7027 7.29754 31.7576 16.0009 31.7576C24.7042 31.7576 31.7591 24.7027 31.7591 15.9994C31.7591 7.29608 24.7042 0.241211 16.0009 0.241211ZM23.227 22.9715C22.9447 23.4363 22.3388 23.5812 21.8758 23.2989C18.1743 21.037 13.5169 20.527 8.03144 21.7803C7.50266 21.9007 6.97575 21.5695 6.85532 21.0426C6.73488 20.5138 7.0642 19.9869 7.59487 19.8665C13.5978 18.4947 18.7464 19.0856 22.9014 21.6222C23.3643 21.9026 23.5111 22.5085 23.227 22.9715ZM25.1558 18.681C24.8002 19.2587 24.0437 19.4412 23.466 19.0856C19.2319 16.483 12.7736 15.7284 7.76235 17.2489C7.11313 17.4446 6.42627 17.0796 6.22868 16.4303C6.03297 15.7811 6.39992 15.0961 7.04726 14.8985C12.7717 13.1616 19.8868 14.0028 24.7494 16.993C25.3289 17.3468 25.5096 18.1033 25.1558 18.681ZM25.3214 14.2117C20.2424 11.1952 11.8628 10.9185 7.01339 12.3901C6.23432 12.6272 5.41198 12.1869 5.17487 11.4078C4.93965 10.6287 5.37811 9.8064 6.15717 9.56929C11.7235 7.87943 20.9782 8.20687 26.825 11.6769C27.525 12.0928 27.7546 12.9979 27.3406 13.6961C26.9266 14.3961 26.0196 14.6276 25.3214 14.2117Z" fill="currentColor"/>
</svg>