<svg class="svg-fill-current-color" width="44" height="12" viewBox="0 0 44 12" xmlns="http://www.w3.org/2000/svg">
  <g fill="none" fill-rule="evenodd">
    <path d="M30.262 3.283c-.183 1.203-1.102 1.203-1.99 1.203h-.506l.355-2.246a.279.279 0 0 1 .276-.235h.232c.604 0 1.176 0 1.47.344.177.206.23.512.163.934M29.876.145h-3.352a.466.466 0 0 0-.46.393L24.709 9.13a.28.28 0 0 0 .276.323h1.72c.16 0 .296-.117.321-.275l.385-2.436a.465.465 0 0 1 .46-.393h1.06c2.208 0 3.482-1.069 3.815-3.186.15-.926.006-1.654-.428-2.163-.476-.56-1.321-.856-2.442-.856" fill="#0079C1"/>
    <path d="M6.359 3.283c-.183 1.203-1.102 1.203-1.99 1.203h-.506l.354-2.246a.279.279 0 0 1 .276-.235h.232c.605 0 1.176 0 1.47.344.177.206.23.512.164.934M5.972.145H2.621a.466.466 0 0 0-.46.393L.805 9.13a.28.28 0 0 0 .276.323h1.6a.466.466 0 0 0 .46-.393l.366-2.318a.465.465 0 0 1 .46-.393h1.06c2.208 0 3.482-1.069 3.815-3.186.15-.926.006-1.654-.427-2.163C7.938.441 7.093.145 5.972.145M13.753 6.368c-.156.917-.883 1.533-1.812 1.533-.465 0-.838-.15-1.077-.433-.238-.281-.327-.682-.252-1.127a1.796 1.796 0 0 1 1.798-1.545c.456 0 .826.152 1.07.438.246.288.343.69.273 1.134m2.236-3.123h-1.605a.28.28 0 0 0-.276.236l-.07.448-.112-.162c-.348-.504-1.123-.673-1.896-.673-1.773 0-3.288 1.343-3.582 3.228-.154.94.064 1.838.597 2.465.49.576 1.189.816 2.021.816 1.43 0 2.222-.918 2.222-.918l-.072.446a.28.28 0 0 0 .276.323h1.445c.23 0 .425-.166.46-.393l.868-5.493a.28.28 0 0 0-.276-.323" fill="#00457C"/>
    <path d="M37.656 6.368c-.155.917-.883 1.533-1.811 1.533-.466 0-.839-.15-1.078-.433-.238-.281-.327-.682-.251-1.127a1.796 1.796 0 0 1 1.798-1.545c.456 0 .826.152 1.07.438.246.288.343.69.272 1.134m2.237-3.123h-1.605a.28.28 0 0 0-.276.236l-.07.448-.113-.162c-.347-.504-1.122-.673-1.896-.673-1.773 0-3.287 1.343-3.582 3.228-.153.94.065 1.838.598 2.465.49.576 1.188.816 2.02.816 1.43 0 2.223-.918 2.223-.918l-.072.446a.28.28 0 0 0 .276.323h1.445c.23 0 .424-.166.46-.393l.868-5.493a.28.28 0 0 0-.276-.323" fill="#0079C1"/>
    <path d="M24.536 3.245h-1.613a.465.465 0 0 0-.385.204l-2.225 3.277-.943-3.149a.466.466 0 0 0-.446-.332h-1.586a.28.28 0 0 0-.264.37l1.776 5.213-1.67 2.357a.28.28 0 0 0 .228.44h1.61a.467.467 0 0 0 .384-.2l5.364-7.742a.28.28 0 0 0-.23-.438" fill="#00457C"/>
    <path d="M41.784.38L40.41 9.133a.28.28 0 0 0 .275.322h1.384a.465.465 0 0 0 .46-.393L43.884.468a.28.28 0 0 0-.276-.323H42.06c-.138 0-.255.1-.276.236" fill="#0079C1"/>
  </g>
</svg>
