<svg width="550" height="200" version="1.1" viewBox="0 0 145.52 52.917" xmlns="http://www.w3.org/2000/svg" class="{{ include.class }}" itemprop="logo">
 <path fill="currentColor" d="m74.652 50.138c-6.7889 0-11.793-4.4612-11.793-9.71v-12.406h-5.3614v-6.606h5.505v-13.068h8.0421v13.068h5.6965v6.606h-5.5529v10.065c0 3.0792 2.4132 4.2276 3.4638 4.2276z"/>
 <path fill="currentColor" d="m112.6 49.948v-28.722h7.4676v3.0985c2.1697-2.5649 6.0628-3.0721 9.0952-3.0985v7.0773c-0.12375 3e-3 -0.16743 7e-3 -0.23935 7e-3 -2.3935 0-4.3242 0.78187-5.7922 2.3456-1.468 1.5318-2.202 3.7338-2.202 6.606v12.685z"/>
 <path fill="currentColor" d="m134.32 41.488v-20.263h8.3293v28.722c-3.9233 0-8.3293-2.4728-8.3293-8.4583zm4.1646-24.428c-1.2446 0-2.2977-0.43083-3.1594-1.2925-0.86165-0.86165-1.2925-1.9148-1.2925-3.1594 0-1.2765 0.43083-2.3296 1.2925-3.1594 0.86165-0.86165 1.9148-1.2925 3.1594-1.2925 1.2765 0 2.3296 0.43083 3.1594 1.2925 0.86165 0.82974 1.2925 1.8829 1.2925 3.1594 0 1.2446-0.43083 2.2977-1.2925 3.1594-0.82973 0.86165-1.8829 1.2925-3.1594 1.2925z"/>
 <path fill="currentColor" d="m7.898 49.948v-22.179h-5.3101v-6.5428h5.4523v-6.979c0-6.8043 5.924-12.285 15.016-11.374v8.1864c-3.8265-0.54085-7.0507 0.38745-7.0507 4.4864v5.6808h5.6419v6.5428h-5.4997v22.179z"/>
 <path fill="currentColor" d="m37.883 49.778c0.716 0.114 1.4559 0.17467 2.2226 0.17467 1.4457 0 2.79-0.19603 4.0359-0.58136-0.12026 0.0333-0.23879 0.0707-0.36018 0.10129-0.2748 0.0692-0.55293 0.13113-0.83302 0.18551-0.2801 0.0544-0.56231 0.10104-0.84698 0.14005-0.28467 0.039-0.57138 0.07-0.8599 0.093s-0.5791 0.038-0.87075 0.0445c-0.29164 6e-3 -0.58445 5e-3 -0.8785-6e-3 -0.29405-0.0108-0.58898-0.0304-0.8847-0.0589-0.24106-0.0233-0.48277-0.0571-0.7245-0.0925z"/>
 <path fill="currentColor" d="m26.803 21.228v16.039h0.0067c0.01685 3.5377 1.2514 6.5348 3.7057 8.9891 1.9406 1.9406 4.2211 3.1153 6.8389 3.5321 0.24173 0.0355 0.48344 0.0692 0.7245 0.0925 0.29572 0.0285 0.59065 0.0482 0.8847 0.0589 0.29405 0.0108 0.58685 0.0127 0.8785 6e-3 0.29165-6e-3 0.58223-0.0214 0.87075-0.0444s0.57522-0.054 0.8599-0.093c0.28467-0.039 0.56688-0.0857 0.84698-0.14004 0.2801-0.0544 0.55822-0.11636 0.83302-0.18552 0.12139-0.0306 0.23993-0.0679 0.36018-0.10128 1.9093-0.59053 3.5854-1.6299 5.0255-3.1254 2.4544-2.4544 3.6888-5.4514 3.7057-8.9891h2e-3v-16.039h-8.3292v16.039h0.02379l-0.0016 0.37724c0 1.2446-0.43078 2.2978-1.2924 3.1595-0.752 0.78093-1.6896 1.2043-2.8086 1.2774-0.07885 9e-3 -0.15784 0.0144-0.23771 0.0145-0.01955 2e-5 -0.03929-2e-3 -0.05891-2e-3 -0.01842 1.8e-4 -0.03577 3e-3 -0.05426 3e-3 -1.2446 0-2.2978-0.43078-3.1595-1.2924-0.86165-0.86165-1.2924-1.9149-1.2924-3.1595l-0.0067-0.37723h0.0041v-16.039z"/>
 <path fill="currentColor" d="m81.902 21.228v16.039h7e-3c0.0169 3.5377 1.2514 6.5348 3.7057 8.9891 1.9406 1.9406 4.2211 3.1153 6.8389 3.5321 0.24173 0.0354 0.48344 0.0692 0.7245 0.0925 0.29572 0.0285 0.59065 0.0482 0.8847 0.0589 0.29405 0.0108 0.58686 0.0127 0.8785 6e-3 0.29165-6e-3 0.58223-0.0214 0.87075-0.0444s0.57522-0.054 0.8599-0.093c0.28467-0.039 0.56687-0.0857 0.84697-0.14004 0.2801-0.0544 0.55823-0.11636 0.83303-0.18552 0.12139-0.0306 0.23992-0.0679 0.36018-0.10129 1.9093-0.59052 3.5854-1.6299 5.0255-3.1254 2.4544-2.4544 3.6889-5.4514 3.7057-8.9891h2e-3v-16.039h-8.3292v16.039h0.0238l-2e-3 0.37723c0 1.2446-0.43078 2.2978-1.2924 3.1595-0.752 0.78093-1.6896 1.2043-2.8086 1.2774-0.0788 9e-3 -0.15784 0.0144-0.23771 0.0145-0.0196 2e-5 -0.0393-2e-3 -0.0589-2e-3 -0.0184 1.8e-4 -0.0358 3e-3 -0.0543 3e-3 -1.2446 0-2.2978-0.43078-3.1595-1.2924-0.86165-0.86165-1.2924-1.9149-1.2924-3.1595l-7e-3 -0.37724h4e-3v-16.039z"/>
</svg>
